<svg width="80" height="80" viewBox="0 0 80 80" fill="none" xmlns="http://www.w3.org/2000/svg">
<path d="M70.5119 10.9861C69.8333 11.0154 69.1573 11.1965 68.5373 11.4373H68.5354C67.9313 11.6731 64.0502 13.281 58.3928 15.6287C52.7354 17.9764 45.3823 21.0327 38.092 24.0642C23.5114 30.1273 9.18382 36.0916 9.18382 36.0916L9.24827 36.0681C9.24827 36.0681 8.44875 36.3301 7.64866 36.8709C7.24862 37.1413 6.82863 37.4867 6.49632 37.9666C6.16401 38.4464 5.93013 39.1036 6.01976 39.8084C6.1815 41.0802 7.04843 41.9122 7.7639 42.4119C8.47937 42.9116 9.16624 43.1482 9.16624 43.1482L9.17405 43.1521L23.1877 47.7849C23.4183 48.5875 27.1641 61.6308 28.0471 64.3845C28.509 65.8265 28.9361 66.6269 29.3362 67.1306C29.5362 67.3825 29.7337 67.5613 29.9319 67.6834C30.0171 67.7358 30.1015 67.7713 30.1838 67.8025C30.1972 67.8076 30.2116 67.8175 30.2248 67.822C30.2531 67.8317 30.2682 67.8316 30.303 67.8396C31.6232 68.328 32.7385 67.4763 32.7385 67.4763L32.7698 67.4529L42.3772 58.9998L56.5862 70.3943L56.7112 70.449C58.9914 71.4312 60.876 70.8916 61.9709 70.0271C63.0658 69.1626 63.51 68.031 63.51 68.031L63.5451 67.9431L73.7952 16.0974C74.0463 14.9884 74.0716 14.0574 73.8537 13.2576C73.6359 12.4578 73.1291 11.8075 72.5002 11.4431C71.8714 11.0788 71.1906 10.9568 70.5119 10.9861ZM70.5666 13.0213C70.9647 13.0041 71.3001 13.0588 71.4983 13.1736C71.6964 13.2884 71.8252 13.42 71.9241 13.783C72.0229 14.146 72.0468 14.7586 71.844 15.6541L71.8401 15.6677L61.6311 67.3123C61.6161 67.3468 61.3531 67.9654 60.7307 68.4568C60.1032 68.9523 59.2491 69.3184 57.5784 68.6267L34.7385 50.3103C34.6435 50.2105 34.5289 50.1314 34.4018 50.0779C34.2748 50.0245 34.138 49.9979 34.0002 49.9998C33.7373 49.9966 33.4838 50.0971 33.2944 50.2795C33.1051 50.4619 32.9952 50.7116 32.9885 50.9744L30.385 64.9236C30.2519 64.6171 30.1084 64.2574 29.9534 63.7732C29.1474 61.2599 25.5231 48.6751 25.1662 47.4353L61.0139 24.2263C61.0655 24.4484 61.1915 24.6461 61.3709 24.7867C61.5502 24.9274 61.7723 25.0026 62.0002 24.9998C62.151 25.0016 62.3002 24.9693 62.4367 24.9053C62.5732 24.8413 62.6934 24.7473 62.7885 24.6303C62.8835 24.5132 62.9509 24.3762 62.9855 24.2295C63.0202 24.0828 63.0212 23.9301 62.9885 23.783C63.0151 23.477 62.9894 23.176 62.8557 22.8767C62.6399 22.3938 62.1289 22.0998 61.7659 22.031C61.0397 21.8934 60.5666 22.158 60.5666 22.158L60.467 22.1951L23.8576 45.9002L9.8264 41.2615L9.82249 41.2595C9.81878 41.2583 9.37798 41.0992 8.90843 40.7713C8.4369 40.4419 8.06239 40.0145 8.00413 39.5564C7.98376 39.3962 8.01453 39.2876 8.14085 39.1052C8.26717 38.9228 8.50134 38.7072 8.7678 38.5271C9.30072 38.1669 9.8889 37.9627 9.8889 37.9627L9.92015 37.9509L9.95335 37.9373C9.95335 37.9373 24.2795 31.9728 38.8596 25.9099C46.1497 22.8785 53.5039 19.8237 59.1604 17.4763C64.8169 15.129 68.8566 13.4588 69.2619 13.3006C69.708 13.1273 70.1686 13.0384 70.5666 13.0213ZM59.1994 25.699L58.3987 26.1013L58.2405 26.9841L58.8537 27.6384L59.1994 27.699L60.0002 27.2986L60.1584 26.4158L59.5471 25.7615L59.1994 25.699ZM56.4006 28.4002L55.5998 28.8006L55.4416 29.6834L56.053 30.3377L56.4006 30.4002L57.2014 29.9978L57.3596 29.117L56.7463 28.4627L56.4006 28.4002ZM53.5998 31.0994L52.7991 31.5017L52.6409 32.3826L53.2522 33.0369L53.5998 33.0994L54.4006 32.699L54.5588 31.8162L53.9475 31.1619L53.5998 31.0994ZM50.801 33.8006L49.9983 34.2009L49.842 35.0838L50.4534 35.7381L50.801 35.8006L51.6018 35.3982L51.76 34.5174L51.1467 33.8611L50.801 33.8006ZM48.0002 36.4998L47.1994 36.9021L47.0412 37.783L47.6526 38.4373L48.0002 38.4998L48.801 38.0994L48.9592 37.2166L48.3479 36.5623L48.0002 36.4998ZM45.1994 39.199L44.3987 39.6013L44.2405 40.4841L44.8537 41.1384L45.1994 41.199L46.0022 40.7986L46.1584 39.9158L45.5471 39.2615L45.1994 39.199ZM42.4006 41.9002L41.5998 42.3006L41.4416 43.1834L42.053 43.8377L42.4006 43.9002L43.2014 43.4978L43.3596 42.617L42.7463 41.9627L42.4006 41.9002ZM39.5998 44.5994L38.7991 45.0017L38.6409 45.8826L39.2541 46.5369L39.5998 46.5994L40.4006 46.199L40.5588 45.3162L39.9475 44.6619L39.5998 44.5994ZM36.801 47.3006L35.9983 47.7009L35.842 48.5838L36.4534 49.2381L36.801 49.3006L37.6018 48.8982L37.76 48.0154L37.1467 47.3611L36.801 47.3006ZM34.676 52.824L40.7951 57.7302L32.3791 65.1326L34.676 52.824Z" fill="white"/>
</svg>
